<?xml version="1.0" encoding="UTF-8"?>
<svg version="1.1" xmlns="http://www.w3.org/2000/svg" width="800" height="800">
<path d="M0 0 C1.24626229 -0.00307895 1.24626229 -0.00307895 2.5177016 -0.0062201 C5.29603494 -0.01186529 8.07431832 -0.01043592 10.85265636 -0.00901413 C12.8671724 -0.0115992 14.88168793 -0.01461276 16.89620274 -0.01801753 C22.42822002 -0.02607433 27.9602243 -0.02787637 33.49224675 -0.028615 C39.46049066 -0.03046789 45.42872786 -0.03801651 51.39696789 -0.04475021 C65.12732683 -0.05903328 78.8576848 -0.06485932 92.58804947 -0.06944216 C99.378983 -0.07178061 106.16991568 -0.07538358 112.96084854 -0.07913754 C136.22489748 -0.09197232 159.48894595 -0.10269066 182.75299835 -0.10614014 C184.21266387 -0.10636177 185.67232939 -0.10658355 187.13199491 -0.10680549 C188.59511207 -0.10702613 190.05822923 -0.10724661 191.52134639 -0.10746694 C194.45642396 -0.10790948 197.39150153 -0.1083566 200.32657909 -0.10880661 C201.0543045 -0.108916 201.78202991 -0.10902539 202.5318076 -0.1091381 C226.11143821 -0.11276616 249.69103802 -0.12867709 273.27065684 -0.15199697 C298.22301024 -0.17662916 323.17534605 -0.19031458 348.12771195 -0.19150805 C350.87041994 -0.1916795 353.61312793 -0.19189492 356.35583591 -0.19214249 C357.36877196 -0.19222614 357.36877196 -0.19222614 358.40217136 -0.19231148 C369.23984776 -0.1934591 380.07749241 -0.20445652 390.91515811 -0.21902954 C401.82310252 -0.23344263 412.73100459 -0.23635338 423.63895581 -0.22858956 C429.5410066 -0.2246943 435.44295123 -0.22555758 441.34498882 -0.23964691 C446.75944625 -0.25245348 452.17371849 -0.25112941 457.58817592 -0.2390562 C459.53577383 -0.23711082 461.48338516 -0.24012327 463.43096427 -0.24890056 C479.60390365 -0.31711033 495.41437264 1.17853691 510.9786787 5.81892776 C511.84380077 6.07238968 512.70892284 6.32585159 513.60026073 6.58699417 C522.57014939 9.32009678 531.01552002 12.9923162 539.4161787 17.13142776 C540.07843456 17.45369339 540.74069042 17.77595901 541.42301464 18.10799026 C551.11342371 22.87328888 559.84112133 28.58507767 568.4161787 35.13142776 C569.32625683 35.81591995 570.23633495 36.50041214 571.1739912 37.20564651 C607.13123891 65.38110181 630.62326015 107.62859358 636.19838271 152.90575584 C636.55111325 156.51033296 636.55603634 160.09607497 636.54760647 163.71524906 C636.55068542 164.96151135 636.55068542 164.96151135 636.55382657 166.23295066 C636.55947176 169.011284 636.55804239 171.78956738 636.5566206 174.56790543 C636.55920567 176.58242146 636.56221923 178.59693699 636.565624 180.6114518 C636.5736808 186.14346908 636.57548284 191.67547336 636.57622147 197.20749581 C636.57807436 203.17573972 636.58562297 209.14397692 636.59235668 215.11221695 C636.60663975 228.84257589 636.61246579 242.57293386 636.61704863 256.30329854 C636.61938708 263.09423206 636.62299005 269.88516474 636.626744 276.67609761 C636.63957878 299.94014654 636.65029713 323.20419501 636.6537466 346.46824741 C636.65396823 347.92791293 636.65419002 349.38757846 636.65441196 350.84724398 C636.65463259 352.31036113 636.65485308 353.77347829 636.6550734 355.23659545 C636.65551595 358.17167302 636.65596306 361.10675059 636.65641308 364.04182816 C636.65652247 364.76955356 636.65663186 365.49727897 636.65674457 366.24705666 C636.66037262 389.82668727 636.67628356 413.40628708 636.69960344 436.9859059 C636.72423563 461.9382593 636.73792105 486.89059511 636.73911452 511.84296101 C636.73928596 514.58566901 636.73950139 517.32837699 636.73974895 520.07108498 C636.73980472 520.74637567 636.73986049 521.42166637 636.73991795 522.11742042 C636.74106556 532.95509682 636.75206299 543.79274147 636.76663601 554.63040717 C636.78104909 565.53835158 636.78395985 576.44625365 636.77619603 587.35420487 C636.77230077 593.25625566 636.77316404 599.15820029 636.78725338 605.06023788 C636.80005994 610.47469531 636.79873588 615.88896756 636.78666267 621.30342498 C636.78471729 623.25102289 636.78772974 625.19863423 636.79650703 627.14621333 C636.8647168 643.31915271 635.36906956 659.12962171 630.7286787 674.69392776 C630.47521679 675.55904984 630.22175488 676.42417191 629.9606123 677.3155098 C627.22750969 686.28539845 623.55529027 694.73076908 619.4161787 703.13142776 C619.09391308 703.79368362 618.77164745 704.45593948 618.4396162 705.1382637 C613.67431759 714.82867277 607.9625288 723.55637039 601.4161787 732.13142776 C600.73168652 733.04150589 600.04719433 733.95158401 599.34195995 734.88924026 C571.16605099 770.84706695 528.918806 794.33814134 483.64117015 799.91346165 C480.04060187 800.26618295 476.45873568 800.27271981 472.84353065 800.26564884 C472.01388751 800.26800107 471.18424437 800.2703533 470.32946053 800.27277681 C467.55516619 800.2794228 464.78091915 800.27900992 462.00661755 800.27859879 C459.99495214 800.28190017 457.98328739 800.28562632 455.97162348 800.28974026 C450.44733024 800.29973746 444.92304785 800.3034734 439.39874685 800.30612957 C433.43860533 800.3100395 427.47847235 800.31961748 421.5183363 800.32834244 C407.80500437 800.34715592 394.09167093 800.35736103 380.37832965 800.36580312 C373.59404829 800.37001514 366.80976781 800.37523647 360.02548719 800.38048765 C336.77919608 800.39837783 313.53290471 800.41337035 290.28660774 800.42080784 C288.82795863 800.42128259 287.36930953 800.42175848 285.91066042 800.4222355 C285.18733538 800.42247188 284.46401034 800.42270825 283.71876637 800.42295179 C280.05434586 800.42415293 276.38992537 800.4253684 272.72550488 800.42659378 C271.63470132 800.42695401 271.63470132 800.42695401 270.52186133 800.42732151 C246.97017986 800.43520583 223.41854889 800.45861973 199.86688945 800.49114972 C174.93825763 800.52551839 150.00965532 800.5451656 125.08099943 800.54845208 C122.3393431 800.54886958 119.59768678 800.54934913 116.85603046 800.54987526 C115.84349896 800.55006005 115.84349896 800.55006005 114.81051227 800.55024857 C103.98849066 800.55257214 93.16652807 800.568185 82.34452743 800.58871711 C71.44546789 800.60906569 60.5464819 800.61407904 49.64740711 800.60494647 C43.75292942 800.60042024 37.85864176 800.60218979 31.96419048 800.62170792 C26.55194513 800.63947327 21.14002654 800.63823468 15.72777707 800.62281062 C13.7854893 800.62045465 11.84317808 800.62465154 9.90092587 800.63663927 C-17.15589575 800.79308694 -42.3070361 794.91557635 -66.5838213 783.13142776 C-67.25187794 782.80771194 -67.91993458 782.48399612 -68.60823536 782.15047073 C-78.29112383 777.38652836 -87.0147795 771.67318546 -95.5838213 765.13142776 C-96.49389942 764.44693558 -97.40397755 763.76244339 -98.3416338 763.05720901 C-134.2988815 734.88175372 -157.79090275 692.63426195 -163.3660253 647.35709969 C-163.71875584 643.75252256 -163.72367894 640.16678056 -163.71524906 636.54760647 C-163.7173017 635.71676494 -163.71935433 634.88592341 -163.72146916 634.02990487 C-163.72711435 631.25157153 -163.72568499 628.47328815 -163.72426319 625.6949501 C-163.72684826 623.68043407 -163.72986182 621.66591854 -163.73326659 619.65140373 C-163.74132339 614.11938645 -163.74312543 608.58738217 -163.74386406 603.05535972 C-163.74571695 597.08711581 -163.75326557 591.11887861 -163.75999928 585.15063858 C-163.77428234 571.42027964 -163.78010839 557.68992167 -163.78469122 543.95955699 C-163.78702967 537.16862347 -163.79063264 530.37769079 -163.7943866 523.58675792 C-163.80722138 500.32270899 -163.81793972 477.05866052 -163.8213892 453.79460812 C-163.82161083 452.3349426 -163.82183261 450.87527707 -163.82205455 449.41561155 C-163.82227519 447.9524944 -163.82249567 446.48937724 -163.822716 445.02626008 C-163.82315854 442.09118251 -163.82360566 439.15610494 -163.82405567 436.22102737 C-163.82416506 435.49330197 -163.82427445 434.76557656 -163.82438716 434.01579887 C-163.82801522 410.43616826 -163.84392615 386.85656845 -163.86724604 363.27694963 C-163.89187822 338.32459623 -163.90556364 313.37226042 -163.90675712 288.41989452 C-163.90692856 285.67718652 -163.90714398 282.93447854 -163.90739155 280.19177055 C-163.90744732 279.51647986 -163.90750309 278.84118916 -163.90756054 278.14543511 C-163.90870816 267.30775871 -163.91970558 256.47011406 -163.9342786 245.63244836 C-163.94869169 234.72450395 -163.95160244 223.81660188 -163.94383863 212.90865066 C-163.93994336 207.00659987 -163.94080664 201.10465524 -163.95489597 195.20261765 C-163.96770254 189.78816022 -163.96637848 184.37388797 -163.95430526 178.95943055 C-163.95235989 177.01183264 -163.95537234 175.0642213 -163.96414962 173.1166422 C-164.03235939 156.94370282 -162.53671215 141.13323382 -157.8963213 125.56892776 C-157.64285938 124.70380569 -157.38939747 123.83868362 -157.12825489 122.94734573 C-154.39515228 113.97745708 -150.72293286 105.53208645 -146.5838213 97.13142776 C-146.26155567 96.46917191 -145.93929005 95.80691605 -145.6072588 95.12459183 C-140.84196019 85.43418276 -135.13017139 76.70648514 -128.5838213 68.13142776 C-127.89932911 67.22134964 -127.21483692 66.31127151 -126.50960255 65.37361526 C-98.33414726 29.41636756 -56.08665548 5.92434631 -10.80949322 0.34922376 C-7.2049161 -0.00350678 -3.6191741 -0.00842987 0 0 Z " fill="#FECF2F" transform="translate(163.5838212966919,-0.13142776489257813)"/>
<path d="M0 0 C11.36149893 -0.32586893 22.7218687 -0.57386931 34.0871067 -0.72537041 C39.36607721 -0.79812653 44.64182803 -0.89660992 49.91894531 -1.05615234 C55.02211939 -1.20945196 60.12221951 -1.29221211 65.22751999 -1.3282814 C67.16461949 -1.35394593 69.10156988 -1.40406854 71.03734207 -1.48022079 C86.96106608 -2.0811385 86.96106608 -2.0811385 93.25335693 3.0758667 C96.3275419 5.97390275 99.04276678 9.10083062 101.67452621 12.4009819 C103.36768399 14.44356468 105.26407446 16.13286814 107.3125 17.8125 C111.01284067 20.94477132 114.37431986 24.35887313 117.77734375 27.80859375 C120.4270144 30.42101068 123.21172803 32.83302621 126.03515625 35.25390625 C128.81699148 37.72603418 131.39375951 40.38430547 134.00390625 43.03515625 C135.92107177 44.92230744 137.89575322 46.68685375 139.9375 48.4375 C142.92801716 51.00665271 145.73116684 53.69317256 148.5 56.5 C151.2485599 59.28621141 154.02859791 61.95308392 157 64.5 C160.79358733 67.75164628 164.27392647 71.25713094 167.78125 74.8125 C169.79430632 76.79720342 171.85446403 78.66096916 174 80.5 C177.79218759 83.75044651 181.27135531 87.25449569 184.77734375 90.80859375 C187.4270144 93.42101068 190.21172803 95.83302621 193.03515625 98.25390625 C195.81699148 100.72603418 198.39375951 103.38430547 201.00390625 106.03515625 C202.92107177 107.92230744 204.89575322 109.68685375 206.9375 111.4375 C209.92801716 114.00665271 212.73116684 116.69317256 215.5 119.5 C218.2485599 122.28621141 221.02859791 124.95308392 224 127.5 C227.79218759 130.75044651 231.27135531 134.25449569 234.77734375 137.80859375 C237.41715567 140.41129057 240.19059699 142.81515457 243.00390625 145.2265625 C246.49241551 148.32594254 249.73336421 151.67049669 253 155 C252.53706543 154.07485596 252.07413086 153.14971191 251.59716797 152.1965332 C248.19956266 145.40480113 244.80508876 138.61154079 241.41973877 131.81369019 C239.7480167 128.45745458 238.07451375 125.10210828 236.40087891 121.74682617 C235.55315027 120.04634027 234.70614001 118.34549604 233.85986328 116.64428711 C228.86658872 106.60848131 223.7854162 96.6300833 218.53933716 86.72392273 C214.91446262 79.86954508 211.43681156 72.9508092 208 66 C204.08713902 58.11978434 200.13735521 50.26531151 196 42.5 C191.70824372 34.43752553 187.58901819 26.29153274 183.5 18.125 C183.1901416 17.50778076 182.8802832 16.89056152 182.56103516 16.25463867 C181.67377661 14.48603033 180.78995412 12.71569952 179.90625 10.9453125 C179.39384766 9.91937988 178.88144531 8.89344727 178.35351562 7.83642578 C177.12200113 5.25566543 176.04792138 2.65896601 175 0 C186.37910398 -0.25591233 197.75751346 -0.45084138 209.13891888 -0.56993389 C214.42511482 -0.62712136 219.70932919 -0.70456118 224.99438477 -0.82983398 C230.10391734 -0.95017554 235.21155593 -1.01529306 240.32239723 -1.04364967 C242.26292529 -1.06383125 244.20336032 -1.10324294 246.14307213 -1.16303062 C256.12030286 -1.45806726 263.83554564 -1.54412949 271.56054688 5.37817383 C273.4390722 7.2015653 275.21341301 9.08320052 277 11 C278.23124029 12.03853349 279.48310407 13.0541029 280.76953125 14.0234375 C286.91248176 18.77062133 292.98670448 23.58955125 299 28.5 C303.9393436 32.53220165 308.90819449 36.51811019 313.9375 40.4375 C319.94214522 45.1200215 325.81660123 49.94987865 331.68115234 54.80615234 C336.64935149 58.91129405 341.67853128 62.92533817 346.76171875 66.88671875 C351.22089304 70.36853977 355.61734231 73.92248072 360 77.5 C364.96232244 81.54982067 369.9515402 85.55805194 375 89.5 C380.04846382 93.4419512 385.03753814 97.45034569 390 101.5 C397.26301629 107.42502306 404.60729609 113.23790488 412 119 C412.94746094 119.73863281 413.89492188 120.47726563 414.87109375 121.23828125 C416.91254503 122.82749215 418.95524463 124.41504411 421 126 C420.59652344 125.30261719 420.19304687 124.60523438 419.77734375 123.88671875 C415.71292413 116.81928846 411.72687431 109.71249744 407.78320312 102.5769043 C401.72138702 91.61119064 395.55075331 80.72284812 389.20068359 69.92041016 C384.44047187 61.8046174 379.83913929 53.60661026 375.26733398 45.38354492 C370.56752841 36.95350412 365.72543078 28.61242361 360.79296875 20.31640625 C357.95364526 15.5051421 355.28468626 10.6600592 352.80273438 5.65356445 C352.2743396 4.58983109 351.74594482 3.52609772 351.20153809 2.43013 C350.60677673 1.22721565 350.60677673 1.22721565 350 0 C361.18863669 -0.35102458 372.37591827 -0.61578221 383.56898499 -0.77718258 C388.76951578 -0.85474079 393.96622168 -0.95948908 399.16455078 -1.1315918 C442.27680727 -2.52109777 442.27680727 -2.52109777 460.81744385 13.19271851 C463.80812967 15.66917765 466.94166521 17.54906746 470.29296875 19.5078125 C471.28039062 20.11431641 472.2678125 20.72082031 473.28515625 21.34570312 C474.24292969 21.93287109 475.20070313 22.52003906 476.1875 23.125 C478.37904762 24.47112404 480.57045204 25.81748124 482.76171875 27.1640625 C483.81536621 27.81149414 484.86901367 28.45892578 485.95458984 29.12597656 C491.32213336 32.42894786 496.67806004 35.75062555 502.03466797 39.07128906 C507.84871249 42.67345682 513.67245246 46.25956604 519.5 49.83984375 C530.00702451 56.29522084 540.48616324 62.79213704 550.93603516 69.33959961 C561.54582487 75.980568 572.20950635 82.53293984 582.87646484 89.08154297 C588.25328004 92.38395143 593.62654466 95.6921281 599 99 C598.34268534 103.90001513 597.39582757 108.35397756 595.875 113.0625 C595.65908203 113.73659912 595.44316406 114.41069824 595.22070312 115.10522461 C594.7439846 116.59296698 594.26503937 118.07999719 593.78417969 119.56640625 C592.94304021 122.17676687 592.11488116 124.79100344 591.2890625 127.40625 C588.30429217 136.84996166 585.25886811 146.26748816 582.10546875 155.65625 C580.72595651 159.82890894 579.44051701 164.0265312 578.16015625 168.23046875 C574.30441443 180.75838409 570.2787856 193.2308406 566.10546875 205.65625 C564.72595651 209.82890894 563.44051701 214.0265312 562.16015625 218.23046875 C558.30441443 230.75838409 554.2787856 243.2308406 550.10546875 255.65625 C548.72595651 259.82890894 547.44051701 264.0265312 546.16015625 268.23046875 C542.30441443 280.75838409 538.2787856 293.2308406 534.10546875 305.65625 C532.72595651 309.82890894 531.44051701 314.0265312 530.16015625 318.23046875 C526.30441443 330.75838409 522.2787856 343.2308406 518.10546875 355.65625 C516.72595651 359.82890894 515.44051701 364.0265312 514.16015625 368.23046875 C510.30441443 380.75838409 506.2787856 393.2308406 502.10546875 405.65625 C500.72595651 409.82890894 499.44051701 414.0265312 498.16015625 418.23046875 C494.30441443 430.75838409 490.2787856 443.2308406 486.10546875 455.65625 C484.72595651 459.82890894 483.44051701 464.0265312 482.16015625 468.23046875 C478.30441443 480.75838409 474.2787856 493.2308406 470.10546875 505.65625 C468.72595651 509.82890894 467.44051701 514.0265312 466.16015625 518.23046875 C462.30441443 530.75838409 458.2787856 543.2308406 454.10546875 555.65625 C452.72982745 559.81720036 451.44740472 564.00279267 450.171875 568.1953125 C448.60391125 573.28596815 446.99055105 578.36177618 445.375 583.4375 C445.07352051 584.38568604 444.77204102 585.33387207 444.46142578 586.31079102 C443.00398906 590.88509395 441.51832942 595.44501174 440 600 C410.96 600 381.92 600 352 600 C352 593.84355214 352.01598061 589.9147924 353.3125 584.25 C354.56912678 578.41636645 355.53052256 572.60684388 356.33203125 566.6953125 C358.15192335 553.64059452 360.26694992 540.63571566 362.375 527.625 C362.77841448 525.12624904 363.18165197 522.6274695 363.5847168 520.12866211 C364.55261615 514.13038881 365.52244331 508.13242942 366.49298096 502.13458252 C367.18279773 497.86987567 367.87098761 493.60490751 368.55859375 489.33984375 C368.66874817 488.65660034 368.77890259 487.97335693 368.89239502 487.26940918 C369.05031525 486.28986267 369.05031525 486.28986267 369.21142578 485.29052734 C369.60668992 482.83899065 370.00219092 480.38749213 370.39794922 477.93603516 C371.76725554 469.45351136 373.12629913 460.96937632 374.48168945 452.48461914 C375.91963884 443.48860596 377.37066265 434.49471573 378.82275391 425.50097656 C380.22178771 416.83503424 381.61532721 408.1682483 383 399.5 C384.40797804 390.68608556 385.82640451 381.87390478 387.25 373.0625 C389.51431269 359.04395267 391.75820308 345.02216383 394 331 C396.43828512 315.74882668 398.88235887 300.4986504 401.34545898 285.25146484 C403.24311054 273.50301908 405.12293139 261.75174929 407 250 C409.05059449 237.16185856 411.1069544 224.32469088 413.17880249 211.48995972 C413.91880395 206.90532547 414.65811732 202.32058021 415.39746094 197.73583984 C415.78592846 195.32727823 416.17458594 192.91874724 416.56347656 190.51025391 C417.08509216 187.27784655 417.60523956 184.04520612 418.125 180.8125 C418.34446289 179.45511719 418.34446289 179.45511719 418.56835938 178.0703125 C420.12160859 168.39184409 421.55535234 158.6951491 423 149 C422.78274765 149.62083466 422.5654953 150.24166931 422.34165955 150.88131714 C403.81175554 203.82673736 403.81175554 203.82673736 395.4375 227.1875 C389.75435179 243.04222961 384.14452585 258.92189096 378.5625 274.8125 C372.82075733 291.15628196 367.06221754 307.49363915 361.25 323.8125 C354.66427125 342.30430605 348.10828363 360.80652653 341.5625 379.3125 C341.06341733 380.72343 340.56433286 382.13435936 340.06524658 383.54528809 C338.09732967 389.10868165 336.12945543 394.67209031 334.16168213 400.23553467 C329.81932064 412.51232303 325.47299185 424.78770459 321.125 437.0625 C320.4357904 439.00830056 319.74658141 440.95410134 319.05737305 442.89990234 C316.70496219 449.54118311 314.35236028 456.1823962 311.99975586 462.8236084 C309.96944615 468.55503959 307.93922828 474.28650331 305.90911865 480.01800537 C305.22218104 481.95734826 304.53521026 483.8966794 303.84820557 485.83599854 C299.52788287 498.03178479 295.21126662 510.22887569 290.89871597 522.42741203 C289.36075061 526.77750689 287.82243018 531.12747622 286.28413963 535.47745609 C285.03438083 539.01167379 283.78489529 542.54598759 282.53607178 546.08053589 C277.67605622 559.83548238 272.8059415 573.58668207 267.875 587.31640625 C267.49641846 588.3726268 267.11783691 589.42884735 266.7277832 590.51707458 C266.38191162 591.47767288 266.03604004 592.43827118 265.6796875 593.42797852 C265.37788574 594.26716324 265.07608398 595.10634796 264.76513672 595.97096252 C264 598 264 598 263 600 C233.96 600 204.92 600 175 600 C177.29572702 581.63418387 177.29572702 581.63418387 179.13671875 572.58203125 C179.33680038 571.57343048 179.53688202 570.56482971 179.74302673 569.52566528 C180.16759237 567.38819973 180.59461273 565.2512204 181.02398682 563.11471558 C182.16406242 557.44071316 183.28535774 551.76298421 184.41015625 546.0859375 C184.6343927 544.95709641 184.85862915 543.82825531 185.08966064 542.66520691 C186.9879647 533.0991297 188.82482329 523.5224693 190.625 513.9375 C190.90264047 512.46158312 191.18030979 510.98567167 191.45800781 509.50976562 C191.87537489 507.29095175 192.29262971 505.07211712 192.70950317 502.85321045 C194.43574806 493.66985302 196.1873558 484.49132671 197.9375 475.3125 C198.27491552 473.54223884 198.61231785 471.77197517 198.94970703 470.00170898 C199.62767078 466.44464312 200.30574569 462.88759847 200.98388672 459.33056641 C202.49055172 451.42721501 203.99572757 443.52357997 205.50100708 435.6199646 C206.3339429 431.24663129 207.16697642 426.87331659 208 422.5 C208.3333338 420.75000009 208.66666713 419.00000009 209 417.25 C209.66666667 413.75 210.33333333 410.25 211 406.75 C211.165 405.88374496 211.33 405.01748993 211.5 404.12498474 C211.83332585 402.37503418 212.16665919 400.62508504 212.5 398.87513733 C213.33350911 394.49939258 214.16688814 390.12362313 215 385.74780273 C216.49777282 377.88161578 217.99643654 370.01560459 219.50003052 362.15052795 C220.3340011 357.78797555 221.16716358 353.42526905 222 349.0625 C222.16566467 348.1948703 222.33132935 347.3272406 222.50201416 346.43331909 C224.3355288 336.8245752 226.15286748 327.21315204 227.9296875 317.59375 C228.08927444 316.72988174 228.24886139 315.86601349 228.4132843 314.97596741 C228.73753338 313.22039885 229.06177754 311.46482939 229.38601685 309.70925903 C232.70671916 291.73502254 236.17141313 273.7921678 239.70629883 255.8588562 C243.15106136 238.38267097 246.5153295 220.89327692 249.79826355 203.38601685 C251.51237244 194.25359588 253.2578759 185.12710988 255 176 C254.79829193 176.51457764 254.59658386 177.02915527 254.38876343 177.55932617 C241.5342796 210.3516785 228.66389736 243.13775182 215.78222656 275.91943359 C211.6451651 286.44771299 207.5091119 296.97638849 203.37298584 307.5050354 C201.08203216 313.33670661 198.79101274 319.16835199 196.5 325 C195.58333302 327.33333321 194.66666635 329.66666654 193.75 332 C166.25000002 401.99999996 166.25000002 401.99999996 164.87510681 405.49972534 C163.95808159 407.83397321 163.04105889 410.16822207 162.1240387 412.50247192 C159.83787855 418.32182092 157.55167519 424.14115294 155.26538086 429.96044922 C150.59391566 441.85085482 145.92325824 453.74157688 141.25390625 465.6328125 C131.22699369 491.16682072 121.19569894 516.69900015 111.10455322 542.20770264 C109.8499098 545.37942624 108.59562058 548.55128984 107.34130859 551.72314453 C104.9196321 557.84642722 102.49671679 563.96921864 100.07302856 570.09170532 C99.11187495 572.51996071 98.15099604 574.94832485 97.19039917 577.37680054 C95.84916958 580.76717558 94.50677319 584.1570863 93.1640625 587.546875 C92.55427803 589.08922569 92.55427803 589.08922569 91.93217468 590.66273499 C91.55962051 591.60257736 91.18706635 592.54241974 90.80322266 593.51074219 C90.4776236 594.33322449 90.15202454 595.15570679 89.81655884 596.00311279 C89 598 89 598 88 600 C58.96 600 29.92 600 0 600 C1.12506836 590.99945315 1.12506836 590.99945315 1.84448242 587.66479492 C2.00547424 586.91057755 2.16646606 586.15636017 2.33233643 585.37928772 C2.59128693 584.19187233 2.59128693 584.19187233 2.85546875 582.98046875 C3.12831696 581.70996925 3.12831696 581.70996925 3.40667725 580.4138031 C3.99677238 577.67093091 4.59194031 574.9291904 5.1875 572.1875 C5.60182355 570.26940729 6.01596596 568.35127545 6.42993164 566.43310547 C7.61399513 560.95410097 8.80528553 555.47669099 10 550 C10.28037109 548.71464355 10.56074219 547.42928711 10.84960938 546.10498047 C13.27508666 535.02614154 15.77652594 523.9650507 18.30859375 512.91015625 C19.16468448 509.16941286 20.02008055 505.42851125 20.875 501.6875 C21.09047485 500.74503418 21.30594971 499.80256836 21.5279541 498.83154297 C24.7245365 484.83042837 27.76341456 470.80359661 30.68209839 456.74215698 C33.05192802 445.33651499 35.59818471 433.98751939 38.29248047 422.65332031 C40.78548884 412.09190335 43.06168727 401.49022271 45.3125 390.875 C48.42038097 376.22096141 51.65103691 361.60081308 55 347 C58.28150915 332.68978513 61.45458082 318.36231604 64.5 304 C67.36990421 290.46650222 70.33934755 276.96046153 73.42489624 263.47442627 C75.29094632 255.31803776 77.14615701 247.15917038 79 239 C79.20403442 238.10303406 79.40806885 237.20606812 79.61828613 236.28192139 C80.80811763 231.04489745 81.9856885 225.80538392 83.14572144 220.56167603 C83.50285254 218.95546111 83.86386793 217.35010421 84.22903442 215.74569702 C84.72958304 213.54358092 85.21611446 211.33881119 85.69921875 209.1328125 C85.97596436 207.89418457 86.25270996 206.65555664 86.5378418 205.37939453 C87.43216234 198.83994129 85.31225352 193.95213816 82.59765625 188.10546875 C82.24866776 187.33803848 81.89967926 186.57060822 81.54011536 185.77992249 C80.78372522 184.11814166 80.02420513 182.45778269 79.26190186 180.79870605 C77.19478178 176.29839915 75.15172237 171.78716668 73.10546875 167.27734375 C72.68134705 166.34419342 72.25722534 165.41104309 71.82025146 164.44961548 C67.4196282 154.75374591 63.13976963 145.00620591 58.875 135.25 C57.37301749 131.81743599 55.87032446 128.38518362 54.3671875 124.953125 C54.00034348 124.11542068 53.63349945 123.27771637 53.25553894 122.41462708 C49.53615911 113.92861031 45.77102086 105.46316416 42 97 C35.90962494 83.32937049 29.87588679 69.63460791 23.87261963 55.92550659 C19.71340345 46.42763048 15.53646004 36.93846325 11.3046875 27.47265625 C10.92862366 26.63064667 10.55255981 25.78863708 10.1651001 24.92111206 C8.37267482 20.90877379 6.57636108 16.89825684 4.7734375 12.890625 C4.13788067 11.47011479 3.50245618 10.04954535 2.8671875 8.62890625 C2.57439911 7.98204361 2.28161072 7.33518097 1.97994995 6.66871643 C0 2.22696627 0 2.22696627 0 0 Z " fill="#050037" transform="translate(117,100)"/>
<path d="M0 0 C1.00186835 3.15696647 0.98848961 5.3910657 0.3125 8.625 C0.16425781 9.40101563 0.01601563 10.17703125 -0.13671875 10.9765625 C-1 13 -1 13 -3.08203125 14.2734375 C-3.71496094 14.51320313 -4.34789062 14.75296875 -5 15 C-1.92482916 4.44191344 -1.92482916 4.44191344 0 0 Z " fill="#D7AF30" transform="translate(540,247)"/>
</svg>